<svg class="canvas" viewBox="0 0 1920 1080" preserveAspectRatio="xMaxYMid slice" xmlns="http://www.w3.org/2000/svg" version="1.1" xmlns:xlink="http://www.w3.org/1999/xlink"><rect width="1920" height="1080" fill="hsl(220, 65%, 15%)"></rect><defs><linearGradient x1="0.5" y1="0" x2="0" y2="1" id="SvgjsLinearGradient1028"><stop stop-color="#28498a" offset="0"></stop><stop stop-color="#0f0614" offset="0.1"></stop></linearGradient><linearGradient x1="0.5" y1="0" x2="0" y2="1" id="SvgjsLinearGradient1029"><stop stop-color="#2f288a" offset="0"></stop><stop stop-color="#140613" offset="0.22857142857142856"></stop></linearGradient><linearGradient x1="0.5" y1="0" x2="0" y2="1" id="SvgjsLinearGradient1030"><stop stop-color="#28498a" offset="0"></stop><stop stop-color="#0f0614" offset="0.3571428571428571"></stop></linearGradient><linearGradient x1="0.5" y1="0" x2="0" y2="1" id="SvgjsLinearGradient1031"><stop stop-color="#c0c7f2" offset="0"></stop><stop stop-color="#c342d7" offset="0.48571428571428565"></stop></linearGradient><linearGradient x1="0.5" y1="0" x2="0" y2="1" id="SvgjsLinearGradient1032"><stop stop-color="#c3c0f2" offset="0"></stop><stop stop-color="#d742cd" offset="0.6142857142857142"></stop></linearGradient><linearGradient x1="0.5" y1="0" x2="0" y2="1" id="SvgjsLinearGradient1033"><stop stop-color="#c3c0f2" offset="0"></stop><stop stop-color="#d742cd" offset="0.7428571428571429"></stop></linearGradient><linearGradient x1="0.5" y1="0" x2="0" y2="1" id="SvgjsLinearGradient1034"><stop stop-color="#c0d0f2" offset="0"></stop><stop stop-color="#a542d7" offset="0.8714285714285713"></stop></linearGradient></defs><path d="M0,-540.7257280148424C55.10098403140768,-528.6551092749218,218.3058616201841,-500.7265451324697,330.60590418844606,-468.30201557531836C442.90594675670803,-435.877486018167,570.9767644524809,-384.86021436444423,673.800255409572,-346.1785506719343C776.623746366663,-307.4968869794244,848.4519485078384,-259.46221207519613,947.5468499309923,-236.212033420259C1046.6417513541462,-212.96185476532187,1165.578816528923,-225.26110452632403,1268.3696639484951,-206.67747874231156C1371.1605113680673,-188.0938529582991,1455.686878439841,-159.03557050409572,1564.291934448425,-124.71027871618419C1672.8969904570092,-90.38498692827267,1860.7153224080707,-21.389819798399362,1920,-0.7257280148423959L 1920 1080 L 0 1080 Z" fill="url(#SvgjsLinearGradient1028)"></path><path d="M0,-371.2731490813651C55.84848424856841,-352.3879936649248,211.37093074562398,-297.0632335744754,335.09090549141047,-257.96221658272356C458.81088023719695,-218.8611995909717,607.8014115286965,-179.9616182973559,742.3198484747188,-136.66704713085386C876.8382854207412,-93.37247596435182,1016.6167932752838,-31.48169516329567,1142.2015271675443,1.8052104162886025C1267.7862610598047,35.092115995872874,1366.1951730228723,32.853160548641654,1495.8282518282815,63.05438634665176C1625.4613306336907,93.25561214466187,1849.304708638047,163.019535394733,1920,183.01256520434924L 1920 1080 L 0 1080 Z" fill="url(#SvgjsLinearGradient1029)"></path><path d="M0,-270.24220222847964C65.29597936453594,-258.93441542308494,265.2797151031828,-248.76006446261346,391.7758761872156,-202.39548139611153C518.2720372712483,-156.0308983296096,631.3585318439399,-35.114698784614944,758.9769665041966,7.945296170531861C886.5954011644534,51.00529112567867,1020.8922328476116,18.10258191481639,1157.486484148756,55.96448833476933C1294.0807354499004,93.82639475472226,1451.456888335856,194.7226116888862,1578.5424743110634,235.11673469024947C1705.6280602862707,275.5108576916127,1863.0904123851772,287.79381106749906,1920,298.32922634294897L 1920 1080 L 0 1080 Z" fill="url(#SvgjsLinearGradient1030)"></path><path d="M0,-182.68936433617068C55.990781697971784,-170.3687778822528,214.93293403384286,-150.337046837545,335.9446901878307,-108.76584561266344C456.95644634181855,-67.19464438778189,588.8497854129797,28.09463662973352,726.0705369239272,66.73784301311865C863.2912884348747,105.38104939650378,1025.4429654445662,86.68062283717893,1159.2691992535156,123.09339268764731C1293.095433062465,159.5061625381157,1402.239472986543,239.03539781037475,1529.0279397776237,285.2144621159289C1655.8164065687045,331.39352642148305,1854.8379899629372,381.00889245346497,1920,400.1677785209722L 1920 1080 L 0 1080 Z" fill="url(#SvgjsLinearGradient1031)"></path><path d="M0,-56.613670178430475C43.77803112955008,-49.18308926327514,156.7731702964286,-36.205381809781215,262.6681867773005,-12.030184687498476C368.5632032581724,12.145012434784267,511.7702960209578,51.62478675445448,635.3700988852314,88.43751255526598C758.969901749505,125.25023835607749,900.4141461860836,164.30455157550546,1004.267003962942,208.8461701173705C1108.1198617398004,253.38778865923553,1150.8769244412097,317.02138533910835,1258.4872455463817,355.68722380645625C1366.0975666515537,394.35306227380414,1539.6768048517038,410.03420706179605,1649.9289305939735,440.8412009214578C1760.1810563362433,471.64819478111957,1874.9881550989955,523.9145226239319,1920,540.5291869644268L 1920 1080 L 0 1080 Z" fill="url(#SvgjsLinearGradient1032)"></path><path d="M0,71.80569355657495C70.08466484061168,93.89848601537159,287.92358524846964,169.68521365547522,420.5079890436701,204.3624483093548C553.0923928388705,239.03968296323436,672.3542534476381,234.64912891087192,795.5064227712024,279.86910147985236C918.6585920947667,325.0890740488328,1040.7241404084104,429.77186713682977,1159.4210049850556,475.68228372323745C1278.1178695617007,521.5927003096451,1380.924444395249,520.7396041213135,1507.6876102310732,555.3316009982983C1634.4507760668973,589.9235978752831,1851.2812683718455,661.9171543206717,1920,683.2342649851464L 1920 1080 L 0 1080 Z" fill="url(#SvgjsLinearGradient1033)"></path><path d="M0,262.39992617349196C77.54343977227543,290.83272468554367,303.49584848353345,379.9260229752694,465.2606386336526,432.996717245802C627.0254287837718,486.06741151633463,808.6729805535106,532.2181261507928,970.588740900715,580.8240917966878C1132.5045012479195,629.4300574425827,1278.5199908669983,673.4174911059902,1436.7552007168792,724.6325111211718C1594.9904105667601,775.8475311363534,1839.4592001194799,860.86726176001,1920,888.1142118877777L 1920 1080 L 0 1080 Z" fill="url(#SvgjsLinearGradient1034)"></path></svg>